#!OML:ASF F:\VICON\USERDATA\INSTALL\rory3\rory3.ASF
:FULLY-SPECIFIED
:DEGREES
99
root 0.11031177606887815 18.239215506668813 25.050207884754034 3.726708523577229 2.8970470614493022 -5.562192276654885
lfemur -44.749254700867965 6.1136346304166524 -12.934489805581807
ltibia 72.9151064558547
lfoot -5.1523301891652435 -3.9425877702674006
ltoes -19.743882155112985
rfemur 0.9795466027561304 -0.08673987030167618 33.110317419419474
rtibia 36.36341382089289
rfoot -4.354042119161513 -8.23052449550968
rtoes -25.058325936773198
lowerback nan 0.5385146414778621 5.118963546996325
upperback -1.7502643821680532 3.665319280797406 0.9848108243938393
thorax -7.976870972109776 1.6180056423547597 -3.2479992161705864
lowerneck -22.575923295882436 -4.6442501792079876 -1.1142201783261294
upperneck 12.543196681576449 -6.857443349849428 2.7946503206248594
head 7.964637670590063 -2.8737692579479064 0.0918163288813405
lclavicle 8.430022748691088e-15 2.1626195164683763e-14
lhumerus -70.92483964471353 -6.181111472463739 97.07589431941207
lradius 103.98320630946709
lwrist 30.840304882072438
lhand -23.888565128542496 1.8508579834951169
lfingers nan
lthumb 2.6012431420555986 31.506845356925165
rclavicle 1.6940894574067654e-14 2.6073440941550697e-14
rhumerus -37.75527834712955 11.001057531133705 -93.88009534658308
rradius 121.73341392082109
rwrist -14.97160721040774
rhand -17.685778023105957 nan
rfingers nan
rthumb 8.717232705939796 11.269690818775329
100
root 0.1356021002658382 18.25777567844387 26.21593759719299 3.1933768537127754 3.1314899031320786 -4.940122192685783
lfemur -44.23250943091935 5.161618757179679 -13.753609738249708
ltibia 69.80660676730808
lfoot -6.567898423314611 -2.8720449834735655
ltoes -21.676089730967156
rfemur 2.8959768281320635 -0.30631218710986907 32.18138987498725
rtibia 34.446014085609534
rfoot 1.4329479933787246 -6.060650510332771
rtoes -21.17013408721795
lowerback nan 0.5692683725513594 4.644116046251385
upperback -1.7475858259008201 3.808213418453297 0.6578565607594264
thorax -7.909533069475743 1.6067353106030522 -3.120073544391178
lowerneck -22.141397134668697 -4.632748044189741 -1.185059211149791
upperneck 12.60234882189987 -6.9069954942627305 2.943802047190671
head 7.950245603491946 -2.877447769435487 0.14471031688220565
lclavicle -6.064557136444602e-14 -2.02652840779111e-14
lhumerus -71.73790981601363 -4.761831385416986 96.43132624933504
lradius 104.71218442828959
lwrist 31.217408784791605
lhand -22.92584778192665 1.2965753618927516
lfingers nan
lthumb 3.507143050730452 30.93522361588442
rclavicle -5.187880063761923e-14 -1.578626750175615e-14
rhumerus -37.97864995007405 11.671658604315864 -93.90271814891884
rradius 121.86004146267607
rwrist -13.429332047135457
rhand -18.032148626285732 nan
rfingers nan
rthumb 8.39897892038647 11.61088370738777
101
root 0.14168365585684028 18.270249453456138 27.019582759915913 2.8512382655272215 3.359698654869656 -4.296540807713699
lfemur -44.38442758871951 4.333862032562419 -14.891954307301429
ltibia 65.15492037845488
lfoot -5.75916233505923 -3.0752678103874693
ltoes -20.735107317750177
rfemur 4.90025215310234 -0.442863479986896 31.14522237950198
rtibia 32.19399290152326
rfoot 7.4312778328377895 -4.846864821171793
rtoes -24.747964355779292
lowerback nan 0.6399457022491124 4.049058446075368
upperback -1.8447275118572823 3.9798447725836352 0.32212406902510504
thorax -7.935169944194065 1.6169090708554288 -2.95805418833361
lowerneck -21.60851505745463 -4.688523348480807 -1.3187803324030458
upperneck 12.620988715518651 -7.005992858239487 3.095840364099647
head 7.914429354871554 -2.917376708336239 0.19782413506009883
lclavicle 1.790532925439012e-14 -6.0489609281847366e-15
lhumerus -72.65892877071964 -3.530132114155073 95.80823779716164
lradius 105.60327893863436
lwrist 31.33478005660818
lhand -29.347168631812078 9.889234761741184
lfingers nan
lthumb -2.9339399010102634 39.425426162123664
rclavicle 2.690153951635652e-14 -1.4892833274594518e-15
rhumerus -38.219146512702906 12.318804842707102 -93.8659031090722
rradius 121.81877514373531
rwrist -11.854154793116917
rhand -18.806152084148128 nan
rfingers nan
rthumb 7.6701772301526345 11.643859526030568
102
root 0.17613272715029377 18.283379034990546 27.51065067690547 3.0251396078158863 3.882690240194064 -3.7418117125027033
lfemur -44.184024085616855 3.125685419860663 -15.868581335131193
ltibia 60.87811246063941
lfoot -6.002624951370919 -2.7267649872521575
ltoes -23.6029739903167
rfemur 6.440863355919959 -0.8300792116634057 30.117644214487825
rtibia 30.39761385088984
rfoot 12.422052014750085 -4.409317390932465
rtoes -21.64648794058555
lowerback nan 0.6145407592608988 3.7038235461609728
upperback -2.1604605889754396 3.9810939275400417 -0.11014676387891598
thorax -7.937552899525335 1.5625729634264918 -3.0488244259077497
lowerneck -21.104244659847353 -4.724796456372278 -1.184214642606916
upperneck 12.733939353490875 -7.061882107200939 3.1444002201903447
head 7.894425253719823 -2.9510436487276626 0.18936620850111113
lclavicle 1.227830988524587e-14 -2.776862283374339e-15
lhumerus -73.3743731428873 -2.4860585128897092 95.07691804115586
lradius 106.3924719369759
lwrist 31.658514049487504
lhand -25.91304748391045 3.2525604087790994
lfingers nan
lthumb 0.4673147269987765 32.902703772577915
rclavicle 2.0989599884092185e-14 1.6256815334027124e-15
rhumerus -38.66504787078697 12.712619645962917 -93.97552871687189
rradius 121.73692015674274
rwrist -10.566767997940866
rhand -19.374017168236232 nan
rfingers nan
rthumb 7.143163903197672 11.60717820600067
